<svg width="512" height="512" viewBox="0 0 512 512" fill="none" xmlns="http://www.w3.org/2000/svg">
<path d="M327 77.667C378.547 77.667 420.333 119.453 420.333 171C420.333 222.547 378.547 264.333 327 264.333C299.189 264.333 274.219 252.169 257.12 232.871C273.937 215.991 284.333 192.71 284.333 167C284.333 143.264 275.473 121.598 260.879 105.128C277.779 88.1647 301.163 77.667 327 77.667Z" fill="white" fill-opacity="0.77"/>
<path d="M383.825 245.046C408.291 261.872 424.333 290.062 424.333 322C424.333 373.547 382.547 415.333 331 415.333C309.311 415.333 289.35 407.935 273.503 395.524C285.926 379.673 293.333 359.701 293.333 338C293.333 308.142 279.312 281.56 257.495 264.476C262.339 258.294 267.947 252.74 274.175 247.953C289.196 258.284 307.391 264.333 327 264.333C348.384 264.333 368.087 257.142 383.825 245.046Z" fill="white" fill-opacity="0.26"/>
<path d="M232.658 250.541C268.098 263.78 293.333 297.943 293.333 338C293.333 389.547 251.547 431.333 200 431.333C148.453 431.333 106.667 389.547 106.667 338C106.667 301.425 127.705 269.763 158.341 254.457C168.506 258.255 179.51 260.333 191 260.333C205.971 260.333 220.118 256.806 232.658 250.541Z" fill="white" fill-opacity="0.89"/>
<path d="M284.333 167C284.333 218.547 242.547 260.333 191 260.333C139.453 260.333 97.6667 218.547 97.6667 167C97.6667 115.453 139.453 73.6666 191 73.6666C242.547 73.6666 284.333 115.453 284.333 167Z" fill="white" fill-opacity="0.54"/>
</svg>
